<svg width="236" height="84" viewBox="0 0 236 84" fill="none" xmlns="http://www.w3.org/2000/svg">
<rect width="236" height="84" rx="8" fill="#703EDB"/>
<path d="M90.032 57V22.008H99.68L108.128 46.824H108.416L116.816 22.008H126.512V57H120.32V41.928L120.416 28.68H120.08L110.816 57H105.776L96.464 28.68H96.08L96.224 41.976V57H90.032ZM144.644 57.432C142.052 57.432 139.812 56.888 137.924 55.8C136.068 54.712 134.628 53.192 133.604 51.24C132.612 49.288 132.116 47 132.116 44.376C132.116 41.656 132.612 39.304 133.604 37.32C134.628 35.304 136.052 33.752 137.876 32.664C139.732 31.544 141.908 30.984 144.404 30.984C147.316 30.984 149.7 31.624 151.556 32.904C153.412 34.152 154.74 35.88 155.54 38.088C156.372 40.264 156.644 42.744 156.356 45.528H138.02C138.02 47.864 138.628 49.672 139.844 50.952C141.06 52.2 142.66 52.824 144.644 52.824C146.18 52.824 147.476 52.488 148.532 51.816C149.588 51.112 150.26 50.184 150.548 49.032H156.26C156.036 50.696 155.396 52.168 154.34 53.448C153.284 54.696 151.924 55.672 150.26 56.376C148.596 57.08 146.724 57.432 144.644 57.432ZM144.404 35.592C142.612 35.592 141.156 36.12 140.036 37.176C138.916 38.232 138.26 39.672 138.068 41.496H150.5C150.404 39.48 149.78 37.992 148.628 37.032C147.476 36.072 146.068 35.592 144.404 35.592ZM172.867 57.432C170.339 57.432 168.115 56.904 166.195 55.848C164.307 54.792 162.835 53.272 161.779 51.288C160.723 49.304 160.195 46.952 160.195 44.232C160.195 41.608 160.691 39.304 161.683 37.32C162.707 35.336 164.163 33.784 166.051 32.664C167.971 31.544 170.243 30.984 172.867 30.984C175.395 30.984 177.587 31.528 179.443 32.616C181.331 33.672 182.803 35.192 183.859 37.176C184.915 39.128 185.443 41.48 185.443 44.232C185.443 46.856 184.931 49.16 183.906 51.144C182.915 53.128 181.475 54.68 179.587 55.8C177.731 56.888 175.491 57.432 172.867 57.432ZM172.819 52.488C174.803 52.488 176.387 51.8 177.571 50.424C178.787 49.016 179.395 46.952 179.395 44.232C179.395 41.512 178.803 39.448 177.619 38.04C176.435 36.632 174.851 35.928 172.867 35.928C170.883 35.928 169.283 36.632 168.067 38.04C166.851 39.416 166.243 41.48 166.243 44.232C166.243 46.92 166.835 48.968 168.019 50.376C169.203 51.784 170.803 52.488 172.819 52.488ZM193.17 57L186.882 31.464H193.026L197.538 51H197.778L202.002 31.464H208.578L212.802 51.048H212.994L217.458 31.464H223.41L217.074 57H209.25L205.122 39.096H204.882L200.898 57H193.17Z" fill="white"/>
<path fill-rule="evenodd" clip-rule="evenodd" d="M34.9175 34.7151C39.0951 36.7463 43.2534 30.375 43.4267 25.757C43.5807 21.1217 42.1154 17.2665 39.709 14.9575C37.3025 12.6486 34.8818 12.7733 32.4962 13.3678C30.7211 13.8103 29.3154 14.7157 28.5646 16.8684C28.1603 17.9968 27.8715 19.4898 27.8715 21.4169C27.8715 23.0661 28.1218 24.698 28.5646 26.2605C29.6427 30.0278 31.9528 33.2916 34.9175 34.7151ZM52.2233 35.8795C55.727 36.7649 59.1538 32.8587 61.2329 28.8831C62.1955 27.0255 62.8693 25.1679 63.1196 23.7444C63.5624 21.2618 63.2857 16.5165 60.938 14.6482C58.5995 12.7871 54.5713 13.3503 51.9043 14.7922C49.0796 16.3193 48.0457 18.2584 47.2371 23.3103C46.4478 28.3623 47.1024 34.5774 52.2233 35.8795ZM61.2525 39.071C63.3894 36.1544 66.5081 34.1406 66.5081 34.1406C72.4376 30.6684 75.8066 35.0086 75.8258 40.6335C75.8258 46.2757 69.8964 52.3519 65.2375 52.3519C63.5242 52.3519 62.2151 51.9005 61.2525 51.0499C59.5776 49.5916 58.9808 46.9875 59.2888 43.6889C59.4429 42.0223 60.2514 40.4425 61.2525 39.071ZM28.5454 45.9297C29.2962 44.6103 29.431 42.7006 28.9689 39.9229C28.8727 39.3326 28.7187 38.7771 28.5454 38.2216C26.9283 33.4127 22.1204 29.4799 18.5705 29.4438C13.7168 29.3943 11.8159 36.5897 13.741 40.9298C15.6662 45.27 19.3625 49.1761 23.848 48.447C26.1775 48.0824 27.7368 47.3533 28.5454 45.9297ZM50.2964 43.5344C52.7029 45.4614 58.0933 50.9995 61.2312 56.8847C61.8665 58.0826 62.4056 59.2805 62.8099 60.461C63.8302 63.5165 64.0923 66.3688 62.2634 67.6535C59.8185 69.3722 54.5125 68.8289 50.1232 67.2664C44.5019 65.2514 41.0331 66.4501 37.7575 67.5819C36.5458 68.0006 35.3605 68.4102 34.1025 68.6446C34.006 68.6625 33.782 68.727 33.4632 68.8189C31.6202 69.3499 26.607 70.7942 24.7086 69.431C21.7475 67.3046 20.8417 66.1032 23.999 59.159C25.0193 56.9368 26.6749 54.7146 28.5423 52.6487C30.4736 50.5193 31.626 48.8647 32.5481 47.5408C33.9791 45.4862 34.8554 44.228 37.2273 43.2274C41.1767 41.5614 47.4087 41.2254 50.2964 43.5344Z" fill="white"/>
</svg>
