<svg width="35" height="29" viewBox="0 0 35 29" fill="none" xmlns="http://www.w3.org/2000/svg">
<path d="M5.37067 0.118165C3.90258 0.503725 3.33907 0.978261 2.71624 2.22392C2.04892 3.58821 1.81166 4.86352 1.97478 6.0202C2.21204 7.65142 2.82004 9.13434 4.0657 11.2401L4.98511 12.7675L4.9258 13.4497C4.89614 13.8204 4.7775 14.5618 4.65887 15.066C4.54024 15.5851 4.4216 16.3562 4.36228 16.8011C4.3178 17.2608 4.21399 17.7501 4.12502 17.9726C3.84326 18.6102 3.26492 19.322 2.52346 19.9745L1.79683 20.5973L1.2778 21.8875C0.477024 23.8894 0.373219 24.1712 0.195268 25.1054C0.121122 25.58 0.0173176 26.0248 0.0024884 26.0842C-0.0419993 26.2028 0.521512 26.9146 0.773609 27.0481C0.981218 27.1519 1.29263 27.0036 1.48541 26.7367C1.58922 26.5884 1.61888 26.3363 1.6337 25.8321C1.6337 25.2092 1.67819 25.0609 2.01926 24.2157C2.22687 23.6967 2.4938 23.1925 2.61243 23.0738C3.05731 22.6141 3.65048 22.3472 5.10375 21.9765C5.8897 21.7837 6.63116 21.5761 6.77945 21.5168C6.98706 21.4426 7.03155 21.4574 7.12052 21.5612C7.26882 21.754 7.25399 21.9765 7.06121 22.97C6.97223 23.4297 6.89808 23.9636 6.89808 24.1564C6.89808 24.883 7.8175 26.2769 9.33008 27.8785L9.95291 28.5458L10.9168 28.5162C11.851 28.4865 11.8807 28.4865 12.0438 28.2789C12.1773 28.0861 12.1921 28.0416 12.0883 27.834C11.9252 27.4929 11.599 27.3002 11.1392 27.2408C10.7389 27.1815 10.6944 27.1519 10.0271 26.4401C9.30042 25.6541 9.18179 25.4465 9.27076 25.0016C9.33008 24.6606 10.116 23.5335 10.7685 22.8069C11.1392 22.4065 11.3913 22.021 11.6138 21.5464C11.8955 20.9384 11.9549 20.8643 12.1625 20.8494C14.7576 20.7753 15.5139 20.716 15.9587 20.5529L16.4185 20.3749L17.1303 20.5825C19.0581 21.1164 18.8949 21.0422 18.9246 21.3833C18.9691 21.9468 18.6132 24.2008 18.3611 24.9423C18.1535 25.5651 18.1238 25.7579 18.1238 26.618C18.1238 27.4929 18.1386 27.6264 18.3018 27.8192C18.4649 28.0268 18.4946 28.0268 19.3102 28.0268C20.2444 28.0268 20.3334 27.9823 20.3334 27.5226C20.3334 27.2853 20.2741 27.1667 20.0961 27.0184C19.9626 26.8998 19.7847 26.7811 19.6957 26.7515C19.3546 26.6477 19.5623 26.0693 20.5855 24.1119C21.9053 21.5909 22.0684 21.413 23.1806 21.413C23.5661 21.413 23.9665 21.3685 24.189 21.2795L24.5745 21.146L25.0936 21.5168C25.6571 21.9171 26.1316 22.4065 26.1316 22.5845C26.1316 22.7328 26.6803 23.2221 28.7416 24.883C29.7055 25.6689 30.699 26.4697 30.9363 26.6773C31.1884 26.8849 31.5295 27.1222 31.7222 27.2112C31.9002 27.2853 32.2264 27.5078 32.4192 27.6857L32.7899 28.012H33.6649C34.5101 28.012 34.5398 27.9971 34.7771 27.7747C35.0885 27.4633 35.0736 27.2705 34.7326 26.9591C34.4656 26.7367 34.3915 26.707 33.9318 26.707H33.4128L32.7603 26.0248C31.3367 24.5568 30.6842 23.756 30.1503 22.8069C29.3051 21.3388 29.3347 21.5019 29.3051 18.8178L29.2754 16.46L29.5572 15.9113C29.8537 15.3181 30.3579 14.7991 30.9808 14.4432C31.2922 14.2504 31.5146 14.2059 32.1819 14.1466C32.6268 14.1021 33.0272 14.0577 33.0717 14.028C33.1014 13.9983 33.309 13.6869 33.5166 13.3162C33.7983 12.8565 33.8873 12.6044 33.8576 12.4709C33.828 12.3671 33.5759 11.9964 33.2941 11.6257C32.9975 11.2698 32.7454 10.8694 32.701 10.7656C32.6268 10.469 31.9447 9.8758 31.4108 9.65337L30.9511 9.46059L30.9808 8.64498C31.0104 7.8442 30.9956 7.82937 30.8325 7.8442C30.7138 7.85903 30.6397 7.81454 30.6249 7.72556C30.5952 7.62176 30.3431 7.82937 29.661 8.49669C28.8305 9.29746 28.6526 9.44576 27.9556 9.772C27.3624 10.0538 27.0065 10.291 26.4727 10.7804C26.0871 11.1363 25.5088 11.5515 25.1825 11.7295C24.6487 12.026 24.5597 12.0409 23.9517 12.0409C23.5958 12.0409 22.8692 11.9667 22.3502 11.8778C21.8311 11.7888 21.0303 11.6701 20.5855 11.6257C20.1406 11.5812 18.7615 11.3736 17.5306 11.1808C14.1348 10.6469 13.8678 10.6173 12.1031 10.6173C10.9316 10.6173 10.0419 10.6766 8.97418 10.81L7.41711 11.0028L6.97223 10.7804C6.42355 10.4986 5.48931 9.65337 5.20755 9.17883C4.74784 8.39288 4.09536 6.00537 4.09536 5.11562C4.11019 4.22586 4.52541 2.90606 4.94063 2.44636C5.32619 2.03114 6.27526 1.73455 6.83877 1.85319C7.13535 1.9125 7.47642 2.13494 7.72852 2.4167C7.96579 2.68362 8.32169 2.63914 8.46998 2.34255C8.61828 2.04597 8.61828 1.49728 8.48481 1.21553C8.33652 0.918944 7.71369 0.355433 7.29847 0.162653C6.89808 -0.0301271 6.00833 -0.0597861 5.37067 0.118165Z" fill="#703EDB"/>
</svg>
