<svg width="24" height="24" viewBox="0 0 24 24" fill="none" xmlns="http://www.w3.org/2000/svg">
<path d="M13.1562 15.7993C12.8966 15.4217 12.4365 15.2093 11.9055 15.2093H9.15625C8.97926 15.2093 8.80227 15.1385 8.69608 14.9969C8.6375 14.9251 8.59464 14.8417 8.57025 14.7523C8.54586 14.6629 8.54049 14.5694 8.55449 14.4777L8.89667 12.2831C9.03826 11.6341 8.60168 10.8907 7.95272 10.6666C7.33916 10.4424 6.6312 10.7492 6.33622 11.1857L3.61058 15.2447V14.7373C3.61058 13.7462 3.18581 13.345 2.14747 13.345H1.46311C0.424775 13.3568 0 13.758 0 14.7491V21.4865C0 22.4777 0.424775 22.8788 1.46311 22.8788H2.14747C3.13861 22.8788 3.55159 22.4895 3.58698 21.5927L5.65186 23.1856C5.94684 23.4688 6.57221 23.6222 7.02058 23.6222H9.62822C10.525 23.6222 11.4217 22.9496 11.6341 22.1237L13.286 17.109C13.463 16.6252 13.4158 16.165 13.1562 15.7993ZM22.5484 0.743355H21.8641C20.8729 0.743355 20.46 1.13273 20.4128 2.02948L18.3479 0.436574C18.0647 0.153391 17.4276 0 16.9792 0H14.3715C13.4748 0 12.578 0.67256 12.3657 1.49851L10.7138 6.51321C10.5368 6.99698 10.5958 7.45715 10.8435 7.82293C11.1031 8.20051 11.5633 8.4129 12.0943 8.4129H14.8435C15.0205 8.4129 15.1975 8.48369 15.3037 8.62528C15.4217 8.76687 15.4689 8.94386 15.4453 9.14445L15.1031 11.3391C14.9615 11.9881 15.3981 12.7314 16.047 12.9556C16.6606 13.1798 17.3686 12.873 17.6635 12.4365L20.3892 8.3775V8.88487C20.3892 9.87601 20.814 10.2772 21.8523 10.2772H22.5366C23.575 10.2772 23.9998 9.87601 23.9998 8.88487V2.12387C24.0116 1.14453 23.5868 0.743355 22.5484 0.743355Z" fill="#703EDB"/>
</svg>
