<svg width="215" height="215" viewBox="0 0 215 215" fill="none" xmlns="http://www.w3.org/2000/svg">
<path fill-rule="evenodd" clip-rule="evenodd" d="M93.9153 97.6201C99.9984 100.578 106.053 91.3002 106.306 84.5759C106.53 77.8263 104.396 72.2126 100.892 68.8504C97.3882 65.4883 93.8633 65.6698 90.3896 66.5356C87.8047 67.1799 85.7578 68.4982 84.6646 71.6329C84.0759 73.276 83.6554 75.45 83.6554 78.2561C83.6554 80.6576 84.0198 83.0339 84.6646 85.309C86.2344 90.7946 89.5983 95.5472 93.9153 97.6201ZM119.116 99.3138C124.218 100.603 129.208 94.9152 132.235 89.1262C133.637 86.4213 134.618 83.7164 134.982 81.6435C135.627 78.0285 135.224 71.1189 131.806 68.3982C128.401 65.6883 122.535 66.5084 118.651 68.608C114.538 70.8317 113.033 73.6552 111.855 81.0115C110.706 88.3678 111.659 97.4178 119.116 99.3138ZM132.263 103.965C135.375 99.7182 139.916 96.7858 139.916 96.7858C148.55 91.73 153.456 98.0498 153.484 106.24C153.484 114.456 144.85 123.304 138.066 123.304C135.571 123.304 133.665 122.647 132.263 121.408C129.825 119.284 128.956 115.493 129.404 110.689C129.628 108.263 130.806 105.962 132.263 103.965ZM84.6361 113.951C85.7294 112.029 85.9256 109.249 85.2528 105.204C85.1127 104.344 84.8884 103.535 84.6361 102.726C82.2814 95.7241 75.2805 89.9975 70.1114 89.9449C63.0437 89.8729 60.2758 100.35 63.0791 106.67C65.8823 112.99 71.2646 118.678 77.7962 117.616C81.1881 117.085 83.4587 116.023 84.6361 113.951ZM116.313 110.462C119.817 113.268 127.666 121.332 132.236 129.902C133.161 131.646 133.946 133.39 134.534 135.109C136.02 139.559 136.402 143.712 133.739 145.583C130.178 148.085 122.452 147.294 116.061 145.019C107.876 142.085 102.825 143.83 98.0548 145.478C96.2904 146.088 94.5645 146.684 92.7327 147.026C92.5921 147.052 92.266 147.146 91.8017 147.28C89.1181 148.053 81.8183 150.156 79.0539 148.171C74.7422 145.075 73.4233 143.325 78.0206 133.213C79.5063 129.978 81.9171 126.742 84.6363 123.734C87.4485 120.633 89.1266 118.224 90.4693 116.296C92.5529 113.304 93.829 111.472 97.2828 110.015C103.034 107.589 112.108 107.1 116.313 110.462Z" fill="white"/>
</svg>
