<svg width="30" height="30" viewBox="0 0 30 30" fill="none" xmlns="http://www.w3.org/2000/svg">
<path d="M20.55 3.8775C18.2875 3.8775 16.2625 4.9775 15 6.665C14.3552 5.80102 13.5178 5.09924 12.5544 4.61537C11.591 4.1315 10.5281 3.87886 9.45 3.8775C5.6125 3.8775 2.5 7.0025 2.5 10.865C2.5 12.3525 2.7375 13.7275 3.15 15.0025C5.125 21.2525 11.2125 24.99 14.225 26.015C14.65 26.165 15.35 26.165 15.775 26.015C18.7875 24.99 24.875 21.2525 26.85 15.0025C27.2625 13.7275 27.5 12.3525 27.5 10.865C27.5 7.0025 24.3875 3.8775 20.55 3.8775Z" fill="#FF3030"/>
</svg>
