<svg width="160" height="145" viewBox="0 0 160 145" fill="none" xmlns="http://www.w3.org/2000/svg">
<path fill-rule="evenodd" clip-rule="evenodd" d="M55.7555 55.2399C66.3825 60.4069 76.9606 44.1992 77.4014 32.4519C77.7931 20.6604 74.0657 10.8533 67.9441 4.97965C61.8225 -0.894001 55.6646 -0.576806 49.5961 0.935711C45.0804 2.0612 41.5044 4.36436 39.5945 9.84054C38.5661 12.7111 37.8315 16.5091 37.8315 21.4112C37.8315 25.6067 38.4681 29.758 39.5945 33.7326C42.337 43.3159 48.2137 51.6185 55.7555 55.2399ZM99.7812 58.1988C108.694 60.4511 117.411 50.5145 122.7 40.4012C125.149 35.6758 126.863 30.9503 127.5 27.329C128.626 21.0137 127.922 8.94259 121.95 4.18969C116.001 -0.544568 105.754 0.88814 98.9697 4.55606C91.7841 8.44093 89.1541 13.3736 87.0973 26.2249C85.0894 39.0763 86.7545 54.8866 99.7812 58.1988ZM122.75 66.3247C128.186 58.9054 136.119 53.7825 136.119 53.7825C151.203 44.9499 159.773 55.9906 159.822 70.2993C159.822 84.6523 144.738 100.109 132.887 100.109C128.529 100.109 125.198 98.961 122.75 96.797C118.489 93.0873 116.971 86.4629 117.755 78.072C118.146 73.8324 120.203 69.8136 122.75 66.3247ZM39.545 83.769C41.4549 80.4126 41.7978 75.5547 40.6224 68.4887C40.3776 66.9872 39.9858 65.5739 39.545 64.1607C35.4313 51.9276 23.2009 41.9234 14.1705 41.8314C1.82338 41.7057 -3.01215 60.0094 1.88511 71.0501C6.78236 82.0908 16.1851 92.0275 27.5957 90.1726C33.5214 89.2452 37.4882 87.3904 39.545 83.769ZM94.8847 77.6746C101.006 82.5767 114.719 96.6646 122.701 111.636C124.317 114.683 125.688 117.73 126.717 120.733C129.312 128.506 129.979 135.762 125.327 139.03C119.107 143.402 105.61 142.02 94.444 138.045C80.1445 132.919 71.3204 135.968 62.9876 138.848C59.9052 139.913 56.8901 140.955 53.6899 141.551C53.4444 141.597 52.8747 141.761 52.0637 141.994C47.3755 143.345 34.6227 147.019 29.7934 143.551C22.2608 138.142 19.9567 135.086 27.9882 117.421C30.5837 111.768 34.7953 106.115 39.5457 100.86C44.4586 95.4432 47.3902 91.2341 49.7358 87.8662C53.3759 82.6398 55.6052 79.439 61.639 76.8938C71.6856 72.6557 87.5388 71.801 94.8847 77.6746Z" fill="white"/>
</svg>
